<?xml version="1.0" encoding="UTF-8" standalone="no"?>
<!DOCTYPE svg PUBLIC "-//W3C//DTD SVG 1.1//EN"
 "http://www.w3.org/Graphics/SVG/1.1/DTD/svg11.dtd">
<!-- Generated by graphviz version 2.26.3 (20100126.1600)
 -->
<!-- Title: g Pages: 1 -->
<svg width="630pt" height="98pt"
 viewBox="0.00 0.00 630.00 98.00" xmlns="http://www.w3.org/2000/svg" xmlns:xlink="http://www.w3.org/1999/xlink">
<g id="graph1" class="graph" transform="scale(1 1) rotate(0) translate(4 94)">
<title>g</title>
<polygon fill="white" stroke="white" points="-4,5 -4,-94 627,-94 627,5 -4,5"/>
<!-- 0 -->
<g id="node1" class="node"><title>0</title>
<ellipse fill="none" stroke="black" cx="27" cy="-46" rx="27" ry="18.3848"/>
<text text-anchor="middle" x="27" y="-42.4" font-family="Times Roman,serif" font-size="14.00">0</text>
</g>
<!-- 1 -->
<g id="node3" class="node"><title>1</title>
<ellipse fill="none" stroke="black" cx="175" cy="-72" rx="27" ry="18.3848"/>
<text text-anchor="middle" x="175" y="-68.4" font-family="Times Roman,serif" font-size="14.00">1</text>
</g>
<!-- 0&#45;&gt;1 -->
<g id="edge2" class="edge"><title>0&#45;&gt;1</title>
<path fill="none" stroke="black" d="M53.1187,-50.5884C76.8548,-54.7583 112.109,-60.9516 138.604,-65.6061"/>
<polygon fill="black" stroke="black" points="138.19,-69.0869 148.645,-67.37 139.401,-62.1924 138.19,-69.0869"/>
<text text-anchor="middle" x="101" y="-68.4" font-family="Times Roman,serif" font-size="14.00">&#45;silence&#45;</text>
</g>
<!-- 2 -->
<g id="node5" class="node"><title>2</title>
<ellipse fill="none" stroke="black" cx="175" cy="-18" rx="27" ry="18.3848"/>
<text text-anchor="middle" x="175" y="-14.4" font-family="Times Roman,serif" font-size="14.00">2</text>
</g>
<!-- 0&#45;&gt;2 -->
<g id="edge4" class="edge"><title>0&#45;&gt;2</title>
<path fill="none" stroke="black" d="M51.0891,-37.6948C57.7983,-35.6044 65.1307,-33.5243 72,-32 93.6541,-27.1951 118.258,-23.7768 137.988,-21.5213"/>
<polygon fill="black" stroke="black" points="138.547,-24.9812 148.108,-20.4166 137.787,-18.0225 138.547,-24.9812"/>
<text text-anchor="middle" x="101" y="-37.4" font-family="Times Roman,serif" font-size="14.00">&#45;silence&#45;</text>
</g>
<!-- 3 -->
<g id="node7" class="node"><title>3</title>
<ellipse fill="none" stroke="black" cx="323" cy="-72" rx="27" ry="18.3848"/>
<text text-anchor="middle" x="323" y="-68.4" font-family="Times Roman,serif" font-size="14.00">3</text>
</g>
<!-- 1&#45;&gt;3 -->
<g id="edge6" class="edge"><title>1&#45;&gt;3</title>
<path fill="none" stroke="black" d="M202.145,-72C225.542,-72 259.555,-72 285.541,-72"/>
<polygon fill="black" stroke="black" points="285.776,-75.5001 295.776,-72 285.776,-68.5001 285.776,-75.5001"/>
<text text-anchor="middle" x="249" y="-77.4" font-family="Times Roman,serif" font-size="14.00">&#45;silence&#45;</text>
</g>
<!-- 4 -->
<g id="node9" class="node"><title>4</title>
<ellipse fill="none" stroke="black" cx="323" cy="-18" rx="27" ry="18.3848"/>
<text text-anchor="middle" x="323" y="-14.4" font-family="Times Roman,serif" font-size="14.00">4</text>
</g>
<!-- 2&#45;&gt;4 -->
<g id="edge8" class="edge"><title>2&#45;&gt;4</title>
<path fill="none" stroke="black" d="M202.145,-18C225.542,-18 259.555,-18 285.541,-18"/>
<polygon fill="black" stroke="black" points="285.776,-21.5001 295.776,-18 285.776,-14.5001 285.776,-21.5001"/>
<text text-anchor="middle" x="249" y="-23.4" font-family="Times Roman,serif" font-size="14.00">&#45;silence&#45;</text>
</g>
<!-- 5 -->
<g id="node11" class="node"><title>5</title>
<ellipse fill="none" stroke="black" cx="447" cy="-46" rx="27" ry="18.3848"/>
<text text-anchor="middle" x="447" y="-42.4" font-family="Times Roman,serif" font-size="14.00">5</text>
</g>
<!-- 3&#45;&gt;5 -->
<g id="edge10" class="edge"><title>3&#45;&gt;5</title>
<path fill="none" stroke="black" d="M348.994,-66.5495C367.016,-62.7708 391.249,-57.6897 411.109,-53.5255"/>
<polygon fill="black" stroke="black" points="411.971,-56.921 421.04,-51.4433 410.534,-50.07 411.971,-56.921"/>
<text text-anchor="middle" x="385" y="-67.4" font-family="Times Roman,serif" font-size="14.00">ok</text>
</g>
<!-- 4&#45;&gt;5 -->
<g id="edge12" class="edge"><title>4&#45;&gt;5</title>
<path fill="none" stroke="black" d="M349.465,-22.3868C364.87,-25.0991 384.62,-28.8491 402,-33 405.426,-33.8182 408.981,-34.7316 412.522,-35.6847"/>
<polygon fill="black" stroke="black" points="411.78,-39.1112 422.353,-38.4293 413.663,-32.3691 411.78,-39.1112"/>
<text text-anchor="middle" x="385" y="-38.4" font-family="Times Roman,serif" font-size="14.00">okay</text>
</g>
<!-- 6 -->
<g id="node14" class="node"><title>6</title>
<ellipse fill="none" stroke="black" cx="595" cy="-46" rx="27" ry="18.3848"/>
<text text-anchor="middle" x="595" y="-42.4" font-family="Times Roman,serif" font-size="14.00">6</text>
</g>
<!-- 5&#45;&gt;6 -->
<g id="edge14" class="edge"><title>5&#45;&gt;6</title>
<path fill="none" stroke="black" d="M474.145,-46C497.542,-46 531.555,-46 557.541,-46"/>
<polygon fill="black" stroke="black" points="557.776,-49.5001 567.776,-46 557.776,-42.5001 557.776,-49.5001"/>
<text text-anchor="middle" x="521" y="-51.4" font-family="Times Roman,serif" font-size="14.00">&#45;silence&#45;</text>
</g>
</g>
</svg>
