<?xml version="1.0" encoding="UTF-8" standalone="no"?>
<!DOCTYPE svg PUBLIC "-//W3C//DTD SVG 1.1//EN"
 "http://www.w3.org/Graphics/SVG/1.1/DTD/svg11.dtd">
<!-- Generated by graphviz version 2.26.3 (20100126.1600)
 -->
<!-- Title: g Pages: 1 -->
<svg width="796pt" height="253pt"
 viewBox="0.00 0.00 796.00 253.00" xmlns="http://www.w3.org/2000/svg" xmlns:xlink="http://www.w3.org/1999/xlink">
<g id="graph1" class="graph" transform="scale(1 1) rotate(0) translate(4 249)">
<title>g</title>
<polygon fill="white" stroke="white" points="-4,5 -4,-249 793,-249 793,5 -4,5"/>
<!-- 0 -->
<g id="node1" class="node"><title>0</title>
<ellipse fill="none" stroke="black" cx="27" cy="-122" rx="27" ry="18.3848"/>
<text text-anchor="middle" x="27" y="-118.4" font-family="Times Roman,serif" font-size="14.00">0</text>
</g>
<!-- 1 -->
<g id="node3" class="node"><title>1</title>
<ellipse fill="none" stroke="black" cx="249" cy="-122" rx="27" ry="18.3848"/>
<text text-anchor="middle" x="249" y="-118.4" font-family="Times Roman,serif" font-size="14.00">1</text>
</g>
<!-- 0&#45;&gt;1 -->
<g id="edge2" class="edge"><title>0&#45;&gt;1</title>
<path fill="none" stroke="black" d="M54.2216,-122C93.7742,-122 167.257,-122 211.785,-122"/>
<polygon fill="black" stroke="black" points="211.903,-125.5 221.903,-122 211.903,-118.5 211.903,-125.5"/>
<text text-anchor="middle" x="101" y="-127.4" font-family="Times Roman,serif" font-size="14.00">&#45;silence&#45;</text>
</g>
<!-- 2 -->
<g id="node5" class="node"><title>2</title>
<ellipse fill="none" stroke="black" cx="249" cy="-227" rx="27" ry="18.3848"/>
<text text-anchor="middle" x="249" y="-223.4" font-family="Times Roman,serif" font-size="14.00">2</text>
</g>
<!-- 0&#45;&gt;2 -->
<g id="edge4" class="edge"><title>0&#45;&gt;2</title>
<path fill="none" stroke="black" d="M35.4699,-139.349C43.1302,-153.224 55.7002,-172.1 72,-183 114.465,-211.397 173.703,-221.477 211.709,-225.049"/>
<polygon fill="black" stroke="black" points="211.577,-228.55 221.833,-225.894 212.159,-221.574 211.577,-228.55"/>
<text text-anchor="middle" x="101" y="-214.4" font-family="Times Roman,serif" font-size="14.00">&#45;silence&#45;</text>
</g>
<!-- 3 -->
<g id="node7" class="node"><title>3</title>
<ellipse fill="none" stroke="black" cx="175" cy="-172" rx="27" ry="18.3848"/>
<text text-anchor="middle" x="175" y="-168.4" font-family="Times Roman,serif" font-size="14.00">3</text>
</g>
<!-- 0&#45;&gt;3 -->
<g id="edge6" class="edge"><title>0&#45;&gt;3</title>
<path fill="none" stroke="black" d="M48.151,-133.365C55.5604,-137.069 64.0243,-140.997 72,-144 93.857,-152.229 119.157,-159.142 139.213,-164.04"/>
<polygon fill="black" stroke="black" points="138.638,-167.501 149.177,-166.414 140.26,-160.692 138.638,-167.501"/>
<text text-anchor="middle" x="101" y="-166.4" font-family="Times Roman,serif" font-size="14.00">&#45;silence&#45;</text>
</g>
<!-- 4 -->
<g id="node9" class="node"><title>4</title>
<ellipse fill="none" stroke="black" cx="175" cy="-73" rx="27" ry="18.3848"/>
<text text-anchor="middle" x="175" y="-69.4" font-family="Times Roman,serif" font-size="14.00">4</text>
</g>
<!-- 0&#45;&gt;4 -->
<g id="edge8" class="edge"><title>0&#45;&gt;4</title>
<path fill="none" stroke="black" d="M40.2846,-105.971C48.4629,-97.2951 59.7129,-87.2951 72,-82 92.6352,-73.1072 117.718,-70.7594 137.964,-70.682"/>
<polygon fill="black" stroke="black" points="138.013,-74.1829 148.062,-70.8258 138.113,-67.1836 138.013,-74.1829"/>
<text text-anchor="middle" x="101" y="-87.4" font-family="Times Roman,serif" font-size="14.00">&#45;silence&#45;</text>
</g>
<!-- 5 -->
<g id="node11" class="node"><title>5</title>
<ellipse fill="none" stroke="black" cx="249" cy="-18" rx="27" ry="18.3848"/>
<text text-anchor="middle" x="249" y="-14.4" font-family="Times Roman,serif" font-size="14.00">5</text>
</g>
<!-- 0&#45;&gt;5 -->
<g id="edge10" class="edge"><title>0&#45;&gt;5</title>
<path fill="none" stroke="black" d="M32.8397,-104.285C39.4911,-87.0372 52.0923,-61.5079 72,-48 113.727,-19.6874 173.407,-15.179 211.682,-15.6951"/>
<polygon fill="black" stroke="black" points="211.791,-19.199 221.878,-15.9584 211.971,-12.2013 211.791,-19.199"/>
<text text-anchor="middle" x="101" y="-53.4" font-family="Times Roman,serif" font-size="14.00">&#45;silence&#45;</text>
</g>
<!-- 10 -->
<g id="node13" class="node"><title>10</title>
<ellipse fill="none" stroke="black" cx="487" cy="-122" rx="27" ry="18.3848"/>
<text text-anchor="middle" x="487" y="-118.4" font-family="Times Roman,serif" font-size="14.00">10</text>
</g>
<!-- 1&#45;&gt;10 -->
<g id="edge12" class="edge"><title>1&#45;&gt;10</title>
<path fill="none" stroke="black" d="M276.302,-122C318.959,-122 401.504,-122 449.64,-122"/>
<polygon fill="black" stroke="black" points="449.651,-125.5 459.651,-122 449.651,-118.5 449.651,-125.5"/>
<text text-anchor="middle" x="325" y="-127.4" font-family="Times Roman,serif" font-size="14.00">&#45;silence&#45;</text>
</g>
<!-- 9 -->
<g id="node15" class="node"><title>9</title>
<ellipse fill="none" stroke="black" cx="406" cy="-218" rx="27" ry="18.3848"/>
<text text-anchor="middle" x="406" y="-214.4" font-family="Times Roman,serif" font-size="14.00">9</text>
</g>
<!-- 2&#45;&gt;9 -->
<g id="edge14" class="edge"><title>2&#45;&gt;9</title>
<path fill="none" stroke="black" d="M275.989,-225.453C301.601,-223.985 340.31,-221.766 368.833,-220.131"/>
<polygon fill="black" stroke="black" points="369.054,-223.624 378.838,-219.557 368.654,-216.635 369.054,-223.624"/>
<text text-anchor="middle" x="325" y="-229.4" font-family="Times Roman,serif" font-size="14.00">&#45;silence&#45;</text>
</g>
<!-- 7 -->
<g id="node17" class="node"><title>7</title>
<ellipse fill="none" stroke="black" cx="325" cy="-176" rx="27" ry="18.3848"/>
<text text-anchor="middle" x="325" y="-172.4" font-family="Times Roman,serif" font-size="14.00">7</text>
</g>
<!-- 3&#45;&gt;7 -->
<g id="edge16" class="edge"><title>3&#45;&gt;7</title>
<path fill="none" stroke="black" d="M202.164,-172.724C226.089,-173.362 261.159,-174.298 287.709,-175.006"/>
<polygon fill="black" stroke="black" points="287.695,-178.506 297.785,-175.274 287.882,-171.509 287.695,-178.506"/>
<text text-anchor="middle" x="249" y="-179.4" font-family="Times Roman,serif" font-size="14.00">&#45;silence&#45;</text>
</g>
<!-- 6 -->
<g id="node19" class="node"><title>6</title>
<ellipse fill="none" stroke="black" cx="325" cy="-68" rx="27" ry="18.3848"/>
<text text-anchor="middle" x="325" y="-64.4" font-family="Times Roman,serif" font-size="14.00">6</text>
</g>
<!-- 4&#45;&gt;6 -->
<g id="edge18" class="edge"><title>4&#45;&gt;6</title>
<path fill="none" stroke="black" d="M202.164,-72.0945C226.089,-71.297 261.159,-70.128 287.709,-69.243"/>
<polygon fill="black" stroke="black" points="287.907,-72.7385 297.785,-68.9072 287.674,-65.7423 287.907,-72.7385"/>
<text text-anchor="middle" x="249" y="-76.4" font-family="Times Roman,serif" font-size="14.00">&#45;silence&#45;</text>
</g>
<!-- 8 -->
<g id="node21" class="node"><title>8</title>
<ellipse fill="none" stroke="black" cx="406" cy="-23" rx="27" ry="18.3848"/>
<text text-anchor="middle" x="406" y="-19.4" font-family="Times Roman,serif" font-size="14.00">8</text>
</g>
<!-- 5&#45;&gt;8 -->
<g id="edge20" class="edge"><title>5&#45;&gt;8</title>
<path fill="none" stroke="black" d="M275.989,-18.8595C301.601,-19.6752 340.31,-20.908 368.833,-21.8163"/>
<polygon fill="black" stroke="black" points="368.731,-25.3148 378.838,-22.135 368.954,-18.3183 368.731,-25.3148"/>
<text text-anchor="middle" x="325" y="-27.4" font-family="Times Roman,serif" font-size="14.00">&#45;silence&#45;</text>
</g>
<!-- 11 -->
<g id="node25" class="node"><title>11</title>
<ellipse fill="none" stroke="black" cx="613" cy="-122" rx="27" ry="18.3848"/>
<text text-anchor="middle" x="613" y="-118.4" font-family="Times Roman,serif" font-size="14.00">11</text>
</g>
<!-- 10&#45;&gt;11 -->
<g id="edge30" class="edge"><title>10&#45;&gt;11</title>
<path fill="none" stroke="black" d="M514.03,-122C531.928,-122 555.651,-122 575.384,-122"/>
<polygon fill="black" stroke="black" points="575.58,-125.5 585.58,-122 575.58,-118.5 575.58,-125.5"/>
<text text-anchor="middle" x="551" y="-127.4" font-family="Times Roman,serif" font-size="14.00">okay</text>
</g>
<!-- 9&#45;&gt;11 -->
<g id="edge28" class="edge"><title>9&#45;&gt;11</title>
<path fill="none" stroke="black" d="M428.625,-207.891C460.019,-193.812 518.521,-167.391 568,-144 572.481,-141.882 577.198,-139.616 581.823,-137.373"/>
<polygon fill="black" stroke="black" points="583.629,-140.387 591.083,-132.858 580.561,-134.095 583.629,-140.387"/>
<text text-anchor="middle" x="487" y="-198.4" font-family="Times Roman,serif" font-size="14.00">ok</text>
</g>
<!-- 7&#45;&gt;10 -->
<g id="edge24" class="edge"><title>7&#45;&gt;10</title>
<path fill="none" stroke="black" d="M349.253,-167.916C376.891,-158.703 422.241,-143.586 453.303,-133.232"/>
<polygon fill="black" stroke="black" points="454.466,-136.534 462.846,-130.051 452.252,-129.893 454.466,-136.534"/>
<text text-anchor="middle" x="406" y="-165.4" font-family="Times Roman,serif" font-size="14.00">so</text>
</g>
<!-- 6&#45;&gt;10 -->
<g id="edge22" class="edge"><title>6&#45;&gt;10</title>
<path fill="none" stroke="black" d="M351.918,-70.0287C375.808,-72.5486 411.275,-78.0784 440,-90 447.271,-93.0177 454.573,-97.2607 461.181,-101.673"/>
<polygon fill="black" stroke="black" points="459.509,-104.777 469.694,-107.695 463.552,-99.0623 459.509,-104.777"/>
<text text-anchor="middle" x="406" y="-95.4" font-family="Times Roman,serif" font-size="14.00">@reject@</text>
</g>
<!-- 8&#45;&gt;11 -->
<g id="edge26" class="edge"><title>8&#45;&gt;11</title>
<path fill="none" stroke="black" d="M428.153,-33.5947C465.115,-51.2724 539.47,-86.8337 581.745,-107.052"/>
<polygon fill="black" stroke="black" points="580.475,-110.324 591.007,-111.481 583.495,-104.009 580.475,-110.324"/>
<text text-anchor="middle" x="487" y="-79.4" font-family="Times Roman,serif" font-size="14.00">oh_okay</text>
</g>
<!-- 12 -->
<g id="node29" class="node"><title>12</title>
<ellipse fill="none" stroke="black" cx="761" cy="-122" rx="27" ry="18.3848"/>
<text text-anchor="middle" x="761" y="-118.4" font-family="Times Roman,serif" font-size="14.00">12</text>
</g>
<!-- 11&#45;&gt;12 -->
<g id="edge32" class="edge"><title>11&#45;&gt;12</title>
<path fill="none" stroke="black" d="M640.145,-122C663.542,-122 697.555,-122 723.541,-122"/>
<polygon fill="black" stroke="black" points="723.776,-125.5 733.776,-122 723.776,-118.5 723.776,-125.5"/>
<text text-anchor="middle" x="687" y="-127.4" font-family="Times Roman,serif" font-size="14.00">&#45;silence&#45;</text>
</g>
</g>
</svg>
